<?xml version='1.0' encoding='utf-8'?>
<svg xmlns="http://www.w3.org/2000/svg" width="1920" height="1080" viewBox="0 0 1920 1080" data-theme="dark" data-semantic-intent="taxonomy_list" data-relation-type="taxonomy" data-site-visual-identity="signal-cobalt">
  <style>
        @font-face {
            font-family: 'Inter';
            src: url('assets/fonts/Inter-Regular.ttf') format('truetype');
            font-weight: 400;
            font-style: normal;
            font-display: swap;
        }
        @font-face {
            font-family: 'Inter';
            src: url('assets/fonts/Inter-Bold.ttf') format('truetype');
            font-weight: 600;
            font-style: normal;
            font-display: swap;
        }
        @font-face {
            font-family: 'Inter';
            src: url('assets/fonts/Inter-Bold.ttf') format('truetype');
            font-weight: 800;
            font-style: normal;
            font-display: swap;
        }
        
:root {
    --background: #0f172a;
    --panel: #1e293b;
    --primary-text: #f1f5f9;
    --muted-text: #94a3b8;
    --inverse-text: #0f172a;
    --border: #334155;
    --shadow-color: #000000;
    --icon-pad-bg: #1e293b;
    --art-glow: #7dd3fc;
    --art-glow-opacity: 0.18;
    --art-sheen: #ffffff;
    --art-sheen-opacity: 0.18;
    --art-shadow: #000000;
    --art-shadow-opacity: 0.28;
    --art-muted-line: #64748b;
    --art-panel-tint: #1e293b;
    --semantic-risk: #f87171;
    --semantic-warning: #fb923c;
    --semantic-uncertain: #fbbf24;
    --semantic-evidence: #60a5fa;
    --semantic-claim: #c084fc;
    --semantic-positive: #4ade80;
    --semantic-outcome: #22d3ee;
    --font-family: 'Inter', 'Segoe UI', 'Kalam', Roboto, Helvetica, Arial, sans-serif;
    --radius-xl: 16px;
    --font-family-headline: 'Segoe UI Variable Display', 'Aptos Display', 'Inter', 'Segoe UI', Helvetica, Arial, sans-serif;
    --font-family-body: 'Segoe UI Variable Text', 'Aptos', 'Inter', 'Segoe UI', Helvetica, Arial, sans-serif;
    --font-heading: var(--font-family-headline);
    --font-body: var(--font-family-body);
    --font-size-h1: 64px;
    --font-size-h2: 42px;
    --font-size-h3: 29px;
    --font-size-body: 21px;
    --font-size-caption: 17px;
    --secondary-text: var(--muted-text);
    --panel-border: var(--border);
    --font-weight-normal: 400;
    --font-weight-medium: 500;
    --font-weight-semibold: 600;
    --font-weight-bold: 700;
    --spacing-gutter-pct: 0.07;
    --spacing-top-pct: 0.15;
    --spacing-bottom-pct: 0.07;
    --spacing-title-y-pct: 0.055;
    --accent-1: #93c5fd;
    --accent-2: #60a5fa;
    --accent-3: #818cf8;
    --accent-4: #a78bfa;
    --accent-5: #38bdf8;
    --accent-6: #fb923c;
}
:root[data-theme="dark"] {
    --background: #0f172a;
    --panel: #1e293b;
    --primary-text: #f1f5f9;
    --muted-text: #94a3b8;
    --inverse-text: #0f172a;
    --border: #334155;
    --shadow-color: #000000;
    --icon-pad-bg: #1e293b;
    --art-glow: #7dd3fc;
    --art-glow-opacity: 0.18;
    --art-sheen: #ffffff;
    --art-sheen-opacity: 0.18;
    --art-shadow: #000000;
    --art-shadow-opacity: 0.28;
    --art-muted-line: #64748b;
    --art-panel-tint: #1e293b;
    --semantic-risk: #f87171;
    --semantic-warning: #fb923c;
    --semantic-uncertain: #fbbf24;
    --semantic-evidence: #60a5fa;
    --semantic-claim: #c084fc;
    --semantic-positive: #4ade80;
    --semantic-outcome: #22d3ee;
    --accent-1: #93c5fd;
    --accent-2: #60a5fa;
    --accent-3: #818cf8;
    --accent-4: #a78bfa;
    --accent-5: #38bdf8;
    --accent-6: #fb923c;
}
:root[data-theme="light"] {
    --background: #f8fafc;
    --panel: #ffffff;
    --primary-text: #0f172a;
    --muted-text: #64748b;
    --inverse-text: #ffffff;
    --border: #e2e8f0;
    --shadow-color: #000000;
    --icon-pad-bg: #1e293b;
    --art-glow: #0891b2;
    --art-glow-opacity: 0.10;
    --art-sheen: #ffffff;
    --art-sheen-opacity: 0.34;
    --art-shadow: #0f172a;
    --art-shadow-opacity: 0.14;
    --art-muted-line: #94a3b8;
    --art-panel-tint: #f1f5f9;
    --semantic-risk: #b91c1c;
    --semantic-warning: #c2410c;
    --semantic-uncertain: #a16207;
    --semantic-evidence: #1d4ed8;
    --semantic-claim: #6d28d9;
    --semantic-positive: #15803d;
    --semantic-outcome: #0e7490;
    --accent-1: #1d4ed8;
    --accent-2: #2563eb;
    --accent-3: #4f46e5;
    --accent-4: #6d28d9;
    --accent-5: #0369a1;
    --accent-6: #c2410c;
}</style>
  <rect x="0" y="0" width="1.92E+3" height="1.08E+3" fill="#252a34" stroke="none" id="programmatic_background"/>
  <line id="HEADER_DECOR" x1="960.0" x2="1080.0" y1="115.0" y2="115.0" stroke="var(--accent-1)" stroke-width="6" stroke-linecap="round"/>
  <defs>
    <pattern id="svg155f5833-napkin-hatch" patternUnits="userSpaceOnUse" width="12" height="12">
      <path d="M -3 12 L 12 -3 M 0 15 L 15 0" fill="none" stroke="var(--primary-text)" stroke-width="1" stroke-opacity="0.05"/>
    </pattern>
    <radialGradient id="svg155f5833-universal-edge-vignette" cx="50%" cy="50%" r="72%">
      <stop offset="0%" stop-color="var(--background)" stop-opacity="0"/>
      <stop offset="72%" stop-color="var(--background)" stop-opacity="0.12"/>
      <stop offset="100%" stop-color="var(--primary-text)" stop-opacity="0.08"/>
    </radialGradient>
    <linearGradient id="svg155f5833-universal-surface-sheen" x1="0%" y1="0%" x2="100%" y2="100%">
      <stop offset="0%" stop-color="var(--art-sheen)" stop-opacity="var(--art-sheen-opacity)"/>
      <stop offset="46%" stop-color="var(--art-sheen)" stop-opacity="0.035"/>
      <stop offset="100%" stop-color="var(--art-panel-tint)" stop-opacity="0.14"/>
    </linearGradient>
    <radialGradient id="svg155f5833-universal-icon-aura" cx="50%" cy="42%" r="64%">
      <stop offset="0%" stop-color="var(--art-glow)" stop-opacity="var(--art-glow-opacity)"/>
      <stop offset="100%" stop-color="var(--background)" stop-opacity="0"/>
    </radialGradient>
    <radialGradient id="svg155f5833-window-art-glow" cx="50%" cy="52%" r="68%">
      <stop offset="0%" stop-color="var(--inverse-text)" stop-opacity="0.14"/>
      <stop offset="100%" stop-color="var(--background)" stop-opacity="0"/>
    </radialGradient>
    <linearGradient id="svg155f5833-window-art-sheen" x1="16%" y1="0%" x2="86%" y2="100%">
      <stop offset="0%" stop-color="var(--inverse-text)" stop-opacity="0.22"/>
      <stop offset="52%" stop-color="var(--inverse-text)" stop-opacity="0.035"/>
      <stop offset="100%" stop-color="var(--background)" stop-opacity="0.14"/>
    </linearGradient>
    <filter id="svg155f5833-text-glow" x="-20%" y="-20%" width="140%" height="140%">
      <feDropShadow dx="0" dy="0" stdDeviation="2" flood-color="#000000" flood-opacity="0.4"/>
    </filter>
    <filter id="svg155f5833-shadow" x="-30%" y="-30%" width="160%" height="160%">
      <feDropShadow dx="0" dy="2" stdDeviation="3" flood-color="#000000" flood-opacity="0.08"/>
      <feDropShadow dx="0" dy="6" stdDeviation="10" flood-color="#000000" flood-opacity="0.12"/>
    </filter>
    <marker id="svg155f5833-arrowhead" markerWidth="10" markerHeight="7" refX="9" refY="3.5" orient="auto" markerUnits="strokeWidth">
      <polygon points="0 0, 10 3.5, 0 7" fill="var(--muted-text)" opacity="0.6"/>
    </marker>
  </defs>
  <rect width="100%" height="100%" fill="var(--background)" id="CANVAS_BG"/>
  <rect width="100%" height="100%" fill="url(#svg155f5833-napkin-hatch)"/>
  <ellipse id="WINDOW_ART_GLOW" cx="960" cy="600" rx="650" ry="340" fill="url(#svg155f5833-window-art-glow)" opacity="0.84"/>
  <rect id="UNIVERSAL_EDGE_VIGNETTE" width="100%" height="100%" fill="url(#svg155f5833-universal-edge-vignette)" opacity="0.62"/>
  <text id="TITLE" x="960.0" y="59" font-size="64" font-weight="700" fill="#f1f5f9" style="font-size: 69px; font-family: 'Segoe UI Variable Display', 'Aptos Display', 'Inter', 'Segoe UI', Helvetica, Arial, sans-serif; font-weight: 800; font-kerning: normal; font-feature-settings: &quot;kern&quot; 1, &quot;liga&quot; 1; letter-spacing:-1.2px;" text-anchor="middle" data-final-font-size="69">
    <tspan x="960.0" dy="70.47px">Saxony UFO Reporting Environments</tspan>
  </text>
  <rect id="TITLE_FRAME" x="134" y="50" width="1652" height="100" fill="none"/>
  <path d="M 660 550 L 660 950 L 1260 950 L 1260 550 Q 1260 150 960 150 Q 660 150 660 550 Z" fill="none" stroke="var(--primary-text)" stroke-width="8"/>
  <g transform="translate(0, 0)">
    <g>
      <path id="ITEM_1_BG" d="M 960 550 L 960 150 Q 660 150 660 550 Z" fill="var(--accent-1)" stroke="var(--accent-1)" stroke-width="3" fill-opacity="0.4"/>
      <path id="WINDOW_ART_ITEM_SHEEN_1" d="M 960 550 L 960 150 Q 660 150 660 550 Z" fill="url(#svg155f5833-window-art-sheen)" opacity="0.62"/>
      <path d="M 750 400 L 450 400" fill="none" stroke="var(--accent-1)" stroke-width="2" stroke-dasharray="5 5"/>
      <circle cx="750" cy="400" r="5" fill="var(--accent-1)"/>
      <circle id="WINDOW_ART_ICON_AURA_1" cx="810.0" cy="350.0" r="72" fill="url(#svg155f5833-universal-icon-aura)" opacity="0.78" display="none" data-suppressed-decoration="redundant-badge-ring"/>
      <circle id="ITEM_1_PAD" cx="810.0" cy="350.0" r="58" fill="var(--icon-pad-bg)" stroke="var(--accent-1)" opacity="1" fill-opacity="0.9" stroke-width="2" stroke-opacity="0.72" data-badge-layer="pad"/>
      <circle id="ITEM_1_PAD_INNER" cx="810.0" cy="350.0" r="45.24" fill="var(--accent-1)" fill-opacity="0.12" stroke="none" data-badge-layer="tint"/>
      <circle cx="810.0" cy="350.0" r="46.4" fill="none" stroke="var(--accent-1)" stroke-width="3" stroke-dasharray="6 4" display="none" data-suppressed-decoration="redundant-badge-ring"/>
      <g id="ITEM_1_ICON" transform="translate(765.0, 305.0)" data-icon-size="90" stroke-linecap="round" stroke-linejoin="round" data-badge-treatment="clean">
        <g transform="translate(-8.61777777777778,-11.13111111111111) scale(4.468148148148148)" vector-effect="non-scaling-stroke" stroke-width="2.79" stroke-linecap="round" stroke-linejoin="round" stroke-opacity="1.0">
          <path d="M4 21v-15c0 -1 1 -2 2 -2h5c1 0 2 1 2 2v15" vector-effect="non-scaling-stroke" fill="none" stroke="#f1f5f9"/>
          <path d="M16 8h2c1 0 2 1 2 2v11" vector-effect="non-scaling-stroke" fill="none" stroke="#f1f5f9"/>
          <path d="M3 21h18" vector-effect="non-scaling-stroke" fill="none" stroke="#f1f5f9"/>
          <path d="M10 12v0" vector-effect="non-scaling-stroke" fill="none" stroke="#f1f5f9"/>
          <path d="M10 16v0" vector-effect="non-scaling-stroke" fill="none" stroke="#f1f5f9"/>
          <path d="M10 8v0" vector-effect="non-scaling-stroke" fill="none" stroke="#f1f5f9"/>
          <path d="M7 12v0" vector-effect="non-scaling-stroke" fill="none" stroke="#f1f5f9"/>
          <path d="M7 16v0" vector-effect="non-scaling-stroke" fill="none" stroke="#f1f5f9"/>
          <path d="M7 8v0" vector-effect="non-scaling-stroke" fill="none" stroke="#f1f5f9"/>
          <path d="M17 12v0" vector-effect="non-scaling-stroke" fill="none" stroke="#f1f5f9"/>
          <path d="M17 16v0" vector-effect="non-scaling-stroke" fill="none" stroke="#f1f5f9"/>
        </g>
      </g>
      <g transform="translate(100, 350)">
        <text id="ITEM_1_HEAD" text-anchor="end" font-weight="bold" font-size="28" fill="var(--primary-text)" x="340.0" y="-30.0" data-bg-id="ITEM_1_BG" fill-opacity="1.0" stroke="none" style="font-size: 31px; font-family: 'Segoe UI Variable Display', 'Aptos Display', 'Inter', 'Segoe UI', Helvetica, Arial, sans-serif; font-weight: 700; font-kerning: normal; font-feature-settings: &quot;kern&quot; 1, &quot;liga&quot; 1; letter-spacing:-0.4px;" data-final-font-size="31">
          <tspan x="340.0" dy="28.52px">Dresden Urban Center</tspan>
        </text>
        <rect id="ITEM_1_HEAD_FRAME" x="0" y="-30" width="340" height="40" fill="none"/>
        <text id="ITEM_1_BODY" text-anchor="end" font-size="20" fill="var(--primary-text)" opacity="0.9" x="330.0" y="15.0" data-bg-id="ITEM_1_BG" style="font-size: 23px; font-family: 'Segoe UI Variable Text', 'Aptos', 'Inter', 'Segoe UI', Helvetica, Arial, sans-serif; font-weight: 400; font-kerning: normal; font-feature-settings: &quot;kern&quot; 1, &quot;liga&quot; 1;" data-final-font-size="23">
          <tspan x="330.0" dy="26.53px">Large population and open valley</tspan>
          <tspan x="330.0" dy="26.45px">sightlines produce</tspan>
          <tspan x="330.0" dy="26.45px">numerous reports</tspan>
        </text>
        <rect id="ITEM_1_BODY_FRAME" x="-50" y="15.0" width="380" height="120" fill="none"/>
      </g>
    </g>
    <g>
      <path id="ITEM_2_BG" d="M 960 550 L 1260 550 Q 1260 150 960 150 Z" fill="var(--accent-2)" stroke="var(--accent-2)" stroke-width="3" fill-opacity="0.4"/>
      <path id="WINDOW_ART_ITEM_SHEEN_2" d="M 960 550 L 1260 550 Q 1260 150 960 150 Z" fill="url(#svg155f5833-window-art-sheen)" opacity="0.62"/>
      <path d="M 1160 400 L 1470 400" fill="none" stroke="var(--accent-2)" stroke-width="2" stroke-dasharray="5 5"/>
      <circle cx="1160" cy="400" r="5" fill="var(--accent-2)"/>
      <circle id="WINDOW_ART_ICON_AURA_2" cx="1110.0" cy="350.0" r="72" fill="url(#svg155f5833-universal-icon-aura)" opacity="0.78" display="none" data-suppressed-decoration="redundant-badge-ring"/>
      <circle id="ITEM_2_PAD" cx="1110.0" cy="350.0" r="58" fill="var(--icon-pad-bg)" stroke="var(--accent-2)" opacity="1" fill-opacity="0.9" stroke-width="2" stroke-opacity="0.72" data-badge-layer="pad"/>
      <circle id="ITEM_2_PAD_INNER" cx="1110.0" cy="350.0" r="45.24" fill="var(--accent-2)" fill-opacity="0.12" stroke="none" data-badge-layer="tint"/>
      <circle cx="1110.0" cy="350.0" r="46.4" fill="none" stroke="var(--accent-1)" stroke-width="3" stroke-dasharray="6 4" display="none" data-suppressed-decoration="redundant-badge-ring"/>
      <g id="ITEM_2_ICON" transform="translate(1065.0, 305.0)" data-icon-size="90" stroke-linecap="round" stroke-linejoin="round" data-badge-treatment="clean">
        <g transform="translate(-0.240000000000002,-0.240000000000002) scale(6.4628571428571435)" vector-effect="non-scaling-stroke" stroke-width="2.79" stroke-linecap="round" stroke-linejoin="round" stroke-opacity="1.0">
          <path id="Vector" fill="none" d="M6 11.5a5.5 5.5 0 1 0 0 -11 5.5 5.5 0 0 0 0 11Z" vector-effect="non-scaling-stroke" stroke="#f1f5f9"/>
          <path id="Vector_2" stroke="#f1f5f9" d="M6 11.5a5.5 5.5 0 1 0 0 -11 5.5 5.5 0 0 0 0 11Z" vector-effect="non-scaling-stroke" fill="none"/>
          <path id="Vector_3" stroke="#f1f5f9" d="M13.5 13.5 10 10" vector-effect="non-scaling-stroke" fill="none"/>
        </g>
      </g>
      <g transform="translate(1490, 350)">
        <text id="ITEM_2_HEAD" text-anchor="start" font-weight="bold" font-size="28" fill="var(--primary-text)" x="-10.0" y="-30.0" data-bg-id="ITEM_2_BG" fill-opacity="1.0" stroke="none" style="font-size: 26px; font-family: 'Segoe UI Variable Display', 'Aptos Display', 'Inter', 'Segoe UI', Helvetica, Arial, sans-serif; font-weight: 700; font-kerning: normal; font-feature-settings: &quot;kern&quot; 1, &quot;liga&quot; 1; letter-spacing:-0.4px;" data-final-font-size="26">
          <tspan x="-10.0" dy="25.85px">Chemnitz Investigation Hub</tspan>
        </text>
        <rect id="ITEM_2_HEAD_FRAME" x="-10" y="-30" width="340" height="40" fill="none"/>
        <text id="ITEM_2_BODY" text-anchor="start" font-size="20" fill="var(--primary-text)" opacity="0.9" x="0.0" y="15.0" data-bg-id="ITEM_2_BG" style="font-size: 23px; font-family: 'Segoe UI Variable Text', 'Aptos', 'Inter', 'Segoe UI', Helvetica, Arial, sans-serif; font-weight: 400; font-kerning: normal; font-feature-settings: &quot;kern&quot; 1, &quot;liga&quot; 1;" data-final-font-size="23">
          <tspan x="0.0" dy="26.53px">Provides clear contrasts between</tspan>
          <tspan x="0.0" dy="26.45px">explained and unresolved</tspan>
          <tspan x="0.0" dy="26.45px">data points</tspan>
        </text>
        <rect id="ITEM_2_BODY_FRAME" x="0" y="15.0" width="380" height="120" fill="none"/>
      </g>
    </g>
    <g>
      <path id="ITEM_3_BG" d="M 660 550 L 960 550 L 960 950 L 660 950 Z" fill="var(--accent-3)" stroke="var(--accent-3)" stroke-width="3" fill-opacity="0.4"/>
      <path id="WINDOW_ART_ITEM_SHEEN_3" d="M 660 550 L 960 550 L 960 950 L 660 950 Z" fill="url(#svg155f5833-window-art-sheen)" opacity="0.62"/>
      <path d="M 720 750 L 450 750" fill="none" stroke="var(--accent-3)" stroke-width="2" stroke-dasharray="5 5"/>
      <circle cx="720" cy="750" r="5" fill="var(--accent-3)"/>
      <circle id="WINDOW_ART_ICON_AURA_3" cx="810.0" cy="750.0" r="72" fill="url(#svg155f5833-universal-icon-aura)" opacity="0.78" display="none" data-suppressed-decoration="redundant-badge-ring"/>
      <circle id="ITEM_3_PAD" cx="810.0" cy="750.0" r="58" fill="var(--icon-pad-bg)" stroke="var(--accent-3)" opacity="1" fill-opacity="0.9" stroke-width="2" stroke-opacity="0.72" data-badge-layer="pad"/>
      <circle id="ITEM_3_PAD_INNER" cx="810.0" cy="750.0" r="45.24" fill="var(--accent-3)" fill-opacity="0.12" stroke="none" data-badge-layer="tint"/>
      <circle cx="810.0" cy="750.0" r="46.4" fill="none" stroke="var(--accent-2)" stroke-width="3" stroke-dasharray="6 4" display="none" data-suppressed-decoration="redundant-badge-ring"/>
      <g id="ITEM_3_ICON" transform="translate(765.0, 705.0)" data-icon-size="90" stroke-linecap="round" stroke-linejoin="round" data-badge-treatment="clean">
        <g transform="translate(-6.7028571428571455,-9.530357142857145) scale(3.2314285714285718)">
          <path d="M8.97695 9.81822C7.68369 9.81822 7.53001 10.5467 7.61483 10.9109V25.3158L24.7324 27.2146L30.0002 22.5V15.0422L23.1876 8.26566L22.8596 8.02197L15.5002 9L12.4142 8.02197C12.2033 8.15625 11.951 8.32512 11.8094 8.46545C10.993 9.27463 10.3546 9.81822 8.97695 9.81822Z" fill="#8C5543"/>
          <path d="M13.6198 9.31063C13.035 9.08884 12.4462 8.80135 11.8037 8.47407C12.4581 7.81966 14.0595 6.21636 15.2299 5.03847C16.6928 3.5661 18.656 3.69821 19.9679 5.03847C20.2326 5.30884 20.5296 5.60931 20.8363 5.91774C18.5156 7.0625 16.3906 7.6875 13.6198 9.31063Z" fill="#CDC4D6"/>
          <path d="M13.1558 9.12228C14.1001 9.52955 15.0007 9.7862 16.0606 9.7862C17.6085 9.7862 18.8166 9.19163 19.4207 8.87073C20.0247 8.54982 21.0818 8.2006 21.9973 8.2006C22.7003 8.2006 23.0885 8.25855 23.2104 8.29102C22.8107 7.89374 22.362 7.44613 21.9279 7.00997C21.5508 6.63436 21.1458 6.22946 20.7593 5.84035C19.4543 4.68908 17.6172 4.64256 16.23 6.03871C15.2344 7.04072 13.9269 8.35058 13.1558 9.12228Z" fill="#F4F4F4"/>
          <path d="M5.96834 11.2402C5.07024 12.3299 2.95313 14.8594 2.00684 15.9879V22.5L16 27.8125L22.9724 25.3105L15.8325 18.1406C14.7667 17.0629 13.3627 16.2097 11.7162 16.2097C9.99483 16.2097 8.99195 14.7428 8.99195 13.0065C8.99195 10.9666 12.3886 10.1728 13.1604 9.12524C12.4433 8.81133 12.1057 8.64478 11.8209 8.46558C10.6252 9.68774 9.79822 9.78931 9.29321 9.78931C8.96166 9.78931 7.59646 9.61208 5.96834 11.2402Z" fill="#7D4533"/>
          <path d="M11.0125 23.0202C7.06082 21.6581 4.12549 21.9275 2 22.4664V29.9955H30V22.4609C26.8267 23.8679 23.4212 25.0261 20.0084 25.0261C16.5956 25.0261 14.9641 24.3824 11.0125 23.0202Z" fill="#00D26A"/>
        </g>
      </g>
      <g transform="translate(100, 700)">
        <text id="ITEM_3_HEAD" text-anchor="end" font-weight="bold" font-size="28" fill="var(--primary-text)" x="340.0" y="-30.0" data-bg-id="ITEM_3_BG" fill-opacity="1.0" stroke="none" style="font-size: 29px; font-family: 'Segoe UI Variable Display', 'Aptos Display', 'Inter', 'Segoe UI', Helvetica, Arial, sans-serif; font-weight: 700; font-kerning: normal; font-feature-settings: &quot;kern&quot; 1, &quot;liga&quot; 1; letter-spacing:-0.4px;" data-final-font-size="29">
          <tspan x="340.0" dy="27.98px">Erzgebirge Upland Ridges</tspan>
        </text>
        <rect id="ITEM_3_HEAD_FRAME" x="0" y="-30" width="340" height="40" fill="none"/>
        <text id="ITEM_3_BODY" text-anchor="end" font-size="20" fill="var(--primary-text)" opacity="0.9" x="330.0" y="15.0" data-bg-id="ITEM_3_BG" style="font-size: 23px; font-family: 'Segoe UI Variable Text', 'Aptos', 'Inter', 'Segoe UI', Helvetica, Arial, sans-serif; font-weight: 400; font-kerning: normal; font-feature-settings: &quot;kern&quot; 1, &quot;liga&quot; 1;" data-final-font-size="23">
          <tspan x="330.0" dy="31.82px">Dark skies and long horizons</tspan>
          <tspan x="330.0" dy="26.45px">create isolated light alarms</tspan>
        </text>
        <rect id="ITEM_3_BODY_FRAME" x="-50" y="15.0" width="380" height="120" fill="none"/>
      </g>
    </g>
    <g>
      <path id="ITEM_4_BG" d="M 960 550 L 1260 550 L 1260 950 L 960 950 Z" fill="var(--accent-1)" stroke="var(--accent-4)" stroke-width="3" fill-opacity="0.4"/>
      <path id="WINDOW_ART_ITEM_SHEEN_4" d="M 960 550 L 1260 550 L 1260 950 L 960 950 Z" fill="url(#svg155f5833-window-art-sheen)" opacity="0.62"/>
      <path d="M 1200 750 L 1470 750" fill="none" stroke="var(--accent-4)" stroke-width="2" stroke-dasharray="5 5"/>
      <circle cx="1200" cy="750" r="5" fill="var(--accent-4)"/>
      <circle id="WINDOW_ART_ICON_AURA_4" cx="1110.0" cy="750.0" r="72" fill="url(#svg155f5833-universal-icon-aura)" opacity="0.78" display="none" data-suppressed-decoration="redundant-badge-ring"/>
      <circle id="ITEM_4_PAD" cx="1110.0" cy="750.0" r="58" fill="var(--icon-pad-bg)" stroke="var(--accent-1)" opacity="1" fill-opacity="0.9" stroke-width="2" stroke-opacity="0.72" data-badge-layer="pad"/>
      <circle id="ITEM_4_PAD_INNER" cx="1110.0" cy="750.0" r="45.24" fill="var(--accent-1)" fill-opacity="0.12" stroke="none" data-badge-layer="tint"/>
      <circle cx="1110.0" cy="750.0" r="46.4" fill="none" stroke="var(--accent-3)" stroke-width="3" stroke-dasharray="6 4" display="none" data-suppressed-decoration="redundant-badge-ring"/>
      <g id="ITEM_4_ICON" transform="translate(1065.0, 705.0)" data-icon-size="90" stroke-linecap="round" stroke-linejoin="round" data-badge-treatment="clean">
        <g transform="translate(-3.256000000000002,-3.2560000000000002) scale(0.377)" vector-effect="non-scaling-stroke" stroke-width="2.79" stroke-linecap="round" stroke-linejoin="round" stroke-opacity="1.0">
          <line x1="16" y1="216" x2="240" y2="216" fill="none" stroke="#f1f5f9" vector-effect="non-scaling-stroke"/>
          <polyline points="224 216 224 72 176 72 176 40 80 40 80 104 32 104 32 216" fill="none" stroke="#f1f5f9" vector-effect="non-scaling-stroke"/>
          <line x1="120" y1="72" x2="136" y2="72" fill="none" stroke="#f1f5f9" vector-effect="non-scaling-stroke"/>
          <line x1="120" y1="104" x2="136" y2="104" fill="none" stroke="#f1f5f9" vector-effect="non-scaling-stroke"/>
          <line x1="176" y1="104" x2="192" y2="104" fill="none" stroke="#f1f5f9" vector-effect="non-scaling-stroke"/>
          <line x1="64" y1="136" x2="80" y2="136" fill="none" stroke="#f1f5f9" vector-effect="non-scaling-stroke"/>
          <line x1="64" y1="168" x2="80" y2="168" fill="none" stroke="#f1f5f9" vector-effect="non-scaling-stroke"/>
          <line x1="120" y1="136" x2="136" y2="136" fill="none" stroke="#f1f5f9" vector-effect="non-scaling-stroke"/>
          <line x1="176" y1="136" x2="192" y2="136" fill="none" stroke="#f1f5f9" vector-effect="non-scaling-stroke"/>
          <line x1="176" y1="168" x2="192" y2="168" fill="none" stroke="#f1f5f9" vector-effect="non-scaling-stroke"/>
          <polyline points="112 216 112 168 144 168 144 216" fill="none" stroke="#f1f5f9" vector-effect="non-scaling-stroke"/>
        </g>
      </g>
      <g transform="translate(1490, 700)">
        <text id="ITEM_4_HEAD" text-anchor="start" font-weight="bold" font-size="28" fill="var(--primary-text)" x="-10.0" y="-30.0" data-bg-id="ITEM_4_BG" fill-opacity="1.0" stroke="none" style="font-size: 31px; font-family: 'Segoe UI Variable Display', 'Aptos Display', 'Inter', 'Segoe UI', Helvetica, Arial, sans-serif; font-weight: 700; font-kerning: normal; font-feature-settings: &quot;kern&quot; 1, &quot;liga&quot; 1; letter-spacing:-0.4px;" data-final-font-size="31">
          <tspan x="-10.0" dy="28.52px">Vogtland Folklore Zone</tspan>
        </text>
        <rect id="ITEM_4_HEAD_FRAME" x="-10" y="-30" width="340" height="40" fill="none"/>
        <text id="ITEM_4_BODY" text-anchor="start" font-size="20" fill="var(--primary-text)" opacity="0.9" x="0.0" y="15.0" data-bg-id="ITEM_4_BG" style="font-size: 23px; font-family: 'Segoe UI Variable Text', 'Aptos', 'Inter', 'Segoe UI', Helvetica, Arial, sans-serif; font-weight: 400; font-kerning: normal; font-feature-settings: &quot;kern&quot; 1, &quot;liga&quot; 1;" data-final-font-size="23">
          <tspan x="0.0" dy="26.53px">Combines structured urban</tspan>
          <tspan x="0.0" dy="26.45px">narratives with modern</tspan>
          <tspan x="0.0" dy="26.45px">operational responses</tspan>
        </text>
        <rect id="ITEM_4_BODY_FRAME" x="0" y="15.0" width="380" height="120" fill="none"/>
      </g>
    </g>
  </g>
  <text id="SOURCE_NOTE" x="134.0" y="1058.0" fill="var(--muted-text)" opacity="0.88" style="font-family: var(--font-family); font-size: 20px;">Source: Introduction</text>
</svg>
