<?xml version='1.0' encoding='utf-8'?>
<svg xmlns="http://www.w3.org/2000/svg" width="1920" height="1080" viewBox="0 0 1920 1080" data-theme="light" data-semantic-intent="sequence" data-relation-type="sequence" data-site-visual-identity="signal-cobalt">
  <style>
        @font-face {
            font-family: 'Inter';
            src: url('assets/fonts/Inter-Regular.ttf') format('truetype');
            font-weight: 400;
            font-style: normal;
            font-display: swap;
        }
        @font-face {
            font-family: 'Inter';
            src: url('assets/fonts/Inter-Bold.ttf') format('truetype');
            font-weight: 600;
            font-style: normal;
            font-display: swap;
        }
        @font-face {
            font-family: 'Inter';
            src: url('assets/fonts/Inter-Bold.ttf') format('truetype');
            font-weight: 800;
            font-style: normal;
            font-display: swap;
        }
        
:root {
    --background: #f8fafc;
    --panel: #ffffff;
    --primary-text: #0f172a;
    --muted-text: #64748b;
    --inverse-text: #ffffff;
    --border: #e2e8f0;
    --shadow-color: #000000;
    --icon-pad-bg: #1e293b;
    --art-glow: #0891b2;
    --art-glow-opacity: 0.10;
    --art-sheen: #ffffff;
    --art-sheen-opacity: 0.34;
    --art-shadow: #0f172a;
    --art-shadow-opacity: 0.14;
    --art-muted-line: #94a3b8;
    --art-panel-tint: #f1f5f9;
    --semantic-risk: #b91c1c;
    --semantic-warning: #c2410c;
    --semantic-uncertain: #a16207;
    --semantic-evidence: #1d4ed8;
    --semantic-claim: #6d28d9;
    --semantic-positive: #15803d;
    --semantic-outcome: #0e7490;
    --font-family: 'Inter', 'Segoe UI', 'Kalam', Roboto, Helvetica, Arial, sans-serif;
    --radius-xl: 16px;
    --font-family-headline: 'Segoe UI Variable Display', 'Aptos Display', 'Inter', 'Segoe UI', Helvetica, Arial, sans-serif;
    --font-family-body: 'Segoe UI Variable Text', 'Aptos', 'Inter', 'Segoe UI', Helvetica, Arial, sans-serif;
    --font-heading: var(--font-family-headline);
    --font-body: var(--font-family-body);
    --font-size-h1: 64px;
    --font-size-h2: 42px;
    --font-size-h3: 29px;
    --font-size-body: 21px;
    --font-size-caption: 17px;
    --secondary-text: var(--muted-text);
    --panel-border: var(--border);
    --font-weight-normal: 400;
    --font-weight-medium: 500;
    --font-weight-semibold: 600;
    --font-weight-bold: 700;
    --spacing-gutter-pct: 0.07;
    --spacing-top-pct: 0.15;
    --spacing-bottom-pct: 0.07;
    --spacing-title-y-pct: 0.055;
    --accent-1: #1d4ed8;
    --accent-2: #2563eb;
    --accent-3: #4f46e5;
    --accent-4: #6d28d9;
    --accent-5: #0369a1;
    --accent-6: #c2410c;
}
:root[data-theme="dark"] {
    --background: #0f172a;
    --panel: #1e293b;
    --primary-text: #f1f5f9;
    --muted-text: #94a3b8;
    --inverse-text: #0f172a;
    --border: #334155;
    --shadow-color: #000000;
    --icon-pad-bg: #1e293b;
    --art-glow: #7dd3fc;
    --art-glow-opacity: 0.18;
    --art-sheen: #ffffff;
    --art-sheen-opacity: 0.18;
    --art-shadow: #000000;
    --art-shadow-opacity: 0.28;
    --art-muted-line: #64748b;
    --art-panel-tint: #1e293b;
    --semantic-risk: #f87171;
    --semantic-warning: #fb923c;
    --semantic-uncertain: #fbbf24;
    --semantic-evidence: #60a5fa;
    --semantic-claim: #c084fc;
    --semantic-positive: #4ade80;
    --semantic-outcome: #22d3ee;
    --accent-1: #93c5fd;
    --accent-2: #60a5fa;
    --accent-3: #818cf8;
    --accent-4: #a78bfa;
    --accent-5: #38bdf8;
    --accent-6: #fb923c;
}
:root[data-theme="light"] {
    --background: #f8fafc;
    --panel: #ffffff;
    --primary-text: #0f172a;
    --muted-text: #64748b;
    --inverse-text: #ffffff;
    --border: #e2e8f0;
    --shadow-color: #000000;
    --icon-pad-bg: #1e293b;
    --art-glow: #0891b2;
    --art-glow-opacity: 0.10;
    --art-sheen: #ffffff;
    --art-sheen-opacity: 0.34;
    --art-shadow: #0f172a;
    --art-shadow-opacity: 0.14;
    --art-muted-line: #94a3b8;
    --art-panel-tint: #f1f5f9;
    --semantic-risk: #b91c1c;
    --semantic-warning: #c2410c;
    --semantic-uncertain: #a16207;
    --semantic-evidence: #1d4ed8;
    --semantic-claim: #6d28d9;
    --semantic-positive: #15803d;
    --semantic-outcome: #0e7490;
    --accent-1: #1d4ed8;
    --accent-2: #2563eb;
    --accent-3: #4f46e5;
    --accent-4: #6d28d9;
    --accent-5: #0369a1;
    --accent-6: #c2410c;
}</style>
  <rect x="0" y="0" width="1.92E+3" height="1.08E+3" fill="#252a34" stroke="none" id="programmatic_background"/>
  <line id="HEADER_DECOR" x1="960.0" x2="1080.0" y1="135.0" y2="135.0" stroke="var(--accent-1)" stroke-width="6" stroke-linecap="round"/>
  <defs>
    <pattern id="svg64a5c083-napkin-hatch" patternUnits="userSpaceOnUse" width="12" height="12">
      <path d="M -3 12 L 12 -3 M 0 15 L 15 0" fill="none" stroke="var(--primary-text)" stroke-width="1" stroke-opacity="0.05"/>
    </pattern>
    <radialGradient id="svg64a5c083-universal-edge-vignette" cx="50%" cy="50%" r="72%">
      <stop offset="0%" stop-color="var(--background)" stop-opacity="0"/>
      <stop offset="72%" stop-color="var(--background)" stop-opacity="0.12"/>
      <stop offset="100%" stop-color="var(--primary-text)" stop-opacity="0.08"/>
    </radialGradient>
    <linearGradient id="svg64a5c083-universal-surface-sheen" x1="0%" y1="0%" x2="100%" y2="100%">
      <stop offset="0%" stop-color="var(--art-sheen)" stop-opacity="var(--art-sheen-opacity)"/>
      <stop offset="46%" stop-color="var(--art-sheen)" stop-opacity="0.035"/>
      <stop offset="100%" stop-color="var(--art-panel-tint)" stop-opacity="0.14"/>
    </linearGradient>
    <radialGradient id="svg64a5c083-universal-icon-aura" cx="50%" cy="42%" r="64%">
      <stop offset="0%" stop-color="var(--art-glow)" stop-opacity="var(--art-glow-opacity)"/>
      <stop offset="100%" stop-color="var(--background)" stop-opacity="0"/>
    </radialGradient>
    <linearGradient id="svg64a5c083-timeline-snake-route-glow" x1="0%" y1="0%" x2="100%" y2="100%">
      <stop offset="0%" stop-color="var(--art-glow)" stop-opacity="0"/>
      <stop offset="48%" stop-color="var(--art-glow)" stop-opacity="var(--art-glow-opacity)"/>
      <stop offset="100%" stop-color="var(--art-glow)" stop-opacity="0"/>
    </linearGradient>
    <linearGradient id="svg64a5c083-timeline-snake-card-sheen" x1="0%" y1="0%" x2="100%" y2="100%">
      <stop offset="0%" stop-color="var(--art-sheen)" stop-opacity="var(--art-sheen-opacity)"/>
      <stop offset="100%" stop-color="var(--art-panel-tint)" stop-opacity="0.12"/>
    </linearGradient>
    <filter id="svg64a5c083-text-glow" x="-20%" y="-20%" width="140%" height="140%">
      <feDropShadow dx="0" dy="0" stdDeviation="2" flood-color="#000000" flood-opacity="0.4"/>
    </filter>
    <filter id="svg64a5c083-shadow" x="-30%" y="-30%" width="160%" height="160%">
      <feDropShadow dx="0" dy="2" stdDeviation="3" flood-color="#000000" flood-opacity="0.08"/>
      <feDropShadow dx="0" dy="6" stdDeviation="10" flood-color="#000000" flood-opacity="0.12"/>
    </filter>
    <marker id="svg64a5c083-arrowhead" markerWidth="10" markerHeight="7" refX="9" refY="3.5" orient="auto" markerUnits="strokeWidth">
      <polygon points="0 0, 10 3.5, 0 7" fill="var(--muted-text)" opacity="0.6"/>
    </marker>
    <marker id="svg64a5c083-PHX_SEQUENCE_DIRECTION_ARROW" markerWidth="18" markerHeight="18" refX="16" refY="9" orient="auto" markerUnits="userSpaceOnUse">
      <path d="M 0 0 L 18 9 L 0 18 Z" fill="var(--muted-text)" opacity="0.9"/>
    </marker>
  </defs>
  <rect width="100%" height="100%" fill="var(--background)" id="CANVAS_BG"/>
  <rect width="100%" height="100%" fill="url(#svg64a5c083-napkin-hatch)"/>
  <rect id="UNIVERSAL_EDGE_VIGNETTE" width="100%" height="100%" fill="url(#svg64a5c083-universal-edge-vignette)" opacity="0.62"/>
  <text id="TITLE" x="960.0" y="59" text-anchor="middle" font-size="63" font-weight="700" fill="#0f172a" style="font-size: 69px; font-family: 'Segoe UI Variable Display', 'Aptos Display', 'Inter', 'Segoe UI', Helvetica, Arial, sans-serif; font-weight: 800; font-kerning: normal; font-feature-settings: &quot;kern&quot; 1, &quot;liga&quot; 1; letter-spacing:-1.2px;" data-final-font-size="69">
    <tspan x="960.0" dy="70.47px">Schleswig-Holstein Drone Wave Time line</tspan>
  </text>
  <rect id="TITLE_FRAME" x="134" y="59" width="1652" height="103" fill="none"/>
  <g id="DIAGRAM_SCALER" transform="translate(50.3, 30.2) scale(0.95)">
    <path d="M 480 360 L 1440 360 C 1590 360 1590 750 1440 750 L 480 750" fill="none" stroke="var(--muted-text)" stroke-width="5" stroke-linecap="round" stroke-opacity="0.26" marker-end="url(#svg64a5c083-PHX_SEQUENCE_DIRECTION_ARROW)" data-direction-cue="forward"/>
    <g transform="translate(480.0, 360.0)">
      <circle id="ITEM_1_NODE" r="50" fill="none" stroke="var(--accent-1)" stroke-width="2" stroke-opacity="0.58" data-badge-layer="outline"/>
      <rect id="ITEM_1_TEXT_BG" x="-208.0" y="74.0" width="416.0" height="206.0" rx="22" fill="var(--panel)" fill-opacity="0.94" stroke="var(--primary-text)" stroke-opacity="0.12" stroke-width="1.5"/>
      <text id="ITEM_1_HEAD" data-bg-id="ITEM_1_TEXT_BG" text-anchor="middle" font-weight="bold" font-size="27" fill="var(--accent-1)" x="0.0" y="90.0" fill-opacity="1.0" style="font-size: 31px; font-family: 'Segoe UI Variable Display', 'Aptos Display', 'Inter', 'Segoe UI', Helvetica, Arial, sans-serif; font-weight: 700; font-kerning: normal; font-feature-settings: &quot;kern&quot; 1, &quot;liga&quot; 1; letter-spacing:-0.4px;" data-final-font-size="31">
        <tspan x="0.0" dy="31.02px">Initial Reports</tspan>
      </text>
      <rect id="ITEM_1_HEAD_FRAME" x="-190" y="90" width="380" height="45" fill="none"/>
      <text id="ITEM_1_BODY" data-bg-id="ITEM_1_TEXT_BG" text-anchor="middle" font-size="19.5" fill="var(--primary-text)" x="0.0" y="144.0" style="font-size: 23px; font-family: 'Segoe UI Variable Text', 'Aptos', 'Inter', 'Segoe UI', Helvetica, Arial, sans-serif; font-weight: 400; font-kerning: normal; font-feature-settings: &quot;kern&quot; 1, &quot;liga&quot; 1;" data-final-font-size="23">
        <tspan x="0.0" dy="35.66px">Witnesses record drone-like objects</tspan>
        <tspan x="0.0" dy="26.45px">over Kiel and Dithmarschen</tspan>
      </text>
      <rect id="ITEM_1_BODY_FRAME" x="-190" y="144" width="380" height="120" fill="none"/>
      <circle id="TIMELINE_SNAKE_ART_MILESTONE_AURA_1" cx="0" cy="0" r="58" fill="url(#svg64a5c083-universal-icon-aura)" opacity="0.82" stroke="var(--accent-1)" stroke-opacity="1.0" display="none" data-suppressed-decoration="redundant-badge-ring"/>
      <circle id="ITEM_1_PAD" cx="0" cy="0" r="39" fill="var(--icon-pad-bg)" stroke="var(--accent-1)" opacity="1" fill-opacity="0.9" stroke-width="2" stroke-opacity="0.72" data-badge-layer="pad"/>
      <circle id="ITEM_1_PAD_INNER" cx="0" cy="0" r="30.42" fill="var(--accent-1)" fill-opacity="0.12" stroke="none" data-badge-layer="tint"/>
      <circle cx="0" cy="0" r="31.2" fill="none" stroke="var(--accent-1)" stroke-width="3" stroke-dasharray="6 4" display="none" data-suppressed-decoration="redundant-badge-ring"/>
      <g id="ITEM_1_ICON" transform="translate(-30.0, -30.0)" data-icon-size="60" stroke-linecap="round" stroke-linejoin="round" data-badge-treatment="clean">
        <g transform="translate(-4.765714285714288,-14.543571428571433) scale(2.172857142857143)">
          <path d="M5.5 11C5.22386 11 5 11.2239 5 11.5V13H9V11.5C9 11.2239 8.77614 11 8.5 11H5.5Z" fill="#D3D3D3"/>
          <path d="M21.5 11C21.2239 11 21 11.2239 21 11.5V13H27V11.5C27 11.2239 26.7761 11 26.5 11H21.5Z" fill="#D3D3D3"/>
          <path d="M2 14C2 12.8954 2.89543 12 4 12H28C29.1046 12 30 12.8954 30 14V16.5L28 22L30 27.5V28C30 29.1046 29.1046 30 28 30H4C2.89543 30 2 29.1046 2 28V27.5L3.5 22L2 16.5V14Z" fill="#E6E6E6"/>
          <path d="M2 16.5C2 16.2239 2.22386 16 2.5 16H29.5C29.7761 16 30 16.2239 30 16.5V27.5C30 27.7761 29.7761 28 29.5 28H2.5C2.22386 28 2 27.7761 2 27.5V16.5Z" fill="#533566"/>
          <path d="M22 22C22 25.3137 19.3137 28 16 28C12.6863 28 10 25.3137 10 22C10 18.6863 12.6863 16 16 16C19.3137 16 22 18.6863 22 22Z" fill="#321B41"/>
          <path d="M16 27C18.7614 27 21 24.7614 21 22C21 19.2386 18.7614 17 16 17C13.2386 17 11 19.2386 11 22C11 24.7614 13.2386 27 16 27ZM16 29C12.134 29 9 25.866 9 22C9 18.134 12.134 15 16 15C19.866 15 23 18.134 23 22C23 25.866 19.866 29 16 29Z" fill="#9B9B9B"/>
          <path d="M18.5 22C18.5 23.3807 17.3807 24.5 16 24.5C14.6193 24.5 13.5 23.3807 13.5 22C13.5 20.6193 14.6193 19.5 16 19.5C17.3807 19.5 18.5 20.6193 18.5 22Z" fill="#433B6B"/>
          <path d="M19.0825 19.875C19.4967 20.5924 19.4448 21.3979 18.9665 21.674C18.4882 21.9501 17.7647 21.5924 17.3505 20.875C16.9363 20.1575 16.9882 19.3521 17.4665 19.0759C17.9448 18.7998 18.6683 19.1575 19.0825 19.875Z" fill="white"/>
        </g>
      </g>
    </g>
    <g transform="translate(1440.0, 360.0)">
      <circle id="ITEM_2_NODE" r="50" fill="none" stroke="var(--accent-2)" stroke-width="2" stroke-opacity="0.58" data-badge-layer="outline"/>
      <rect id="ITEM_2_TEXT_BG" x="-208.0" y="74.0" width="416.0" height="206.0" rx="22" fill="var(--panel)" fill-opacity="0.94" stroke="var(--primary-text)" stroke-opacity="0.12" stroke-width="1.5"/>
      <text id="ITEM_2_HEAD" data-bg-id="ITEM_2_TEXT_BG" text-anchor="middle" font-weight="bold" font-size="27" fill="var(--accent-2)" x="0.0" y="90.0" fill-opacity="1.0" style="font-size: 31px; font-family: 'Segoe UI Variable Display', 'Aptos Display', 'Inter', 'Segoe UI', Helvetica, Arial, sans-serif; font-weight: 700; font-kerning: normal; font-feature-settings: &quot;kern&quot; 1, &quot;liga&quot; 1; letter-spacing:-0.4px;" data-final-font-size="31">
        <tspan x="0.0" dy="31.02px">Official Confirmation</tspan>
      </text>
      <rect id="ITEM_2_HEAD_FRAME" x="-190" y="90" width="380" height="45" fill="none"/>
      <text id="ITEM_2_BODY" data-bg-id="ITEM_2_TEXT_BG" text-anchor="middle" font-size="19.5" fill="var(--primary-text)" x="0.0" y="144.0" style="font-size: 23px; font-family: 'Segoe UI Variable Text', 'Aptos', 'Inter', 'Segoe UI', Helvetica, Arial, sans-serif; font-weight: 400; font-kerning: normal; font-feature-settings: &quot;kern&quot; 1, &quot;liga&quot; 1;" data-final-font-size="23">
        <tspan x="0.0" dy="30.37px">Interior Ministry confirms</tspan>
        <tspan x="0.0" dy="26.45px">investigation into possible</tspan>
        <tspan x="0.0" dy="26.45px">espionage or sabotage</tspan>
      </text>
      <rect id="ITEM_2_BODY_FRAME" x="-190" y="144" width="380" height="120" fill="none"/>
      <circle id="TIMELINE_SNAKE_ART_MILESTONE_AURA_2" cx="0" cy="0" r="58" fill="url(#svg64a5c083-universal-icon-aura)" opacity="0.82" stroke="var(--accent-2)" stroke-opacity="1.0" display="none" data-suppressed-decoration="redundant-badge-ring"/>
      <circle id="ITEM_2_PAD" cx="0" cy="0" r="39" fill="var(--icon-pad-bg)" stroke="var(--accent-2)" opacity="1" fill-opacity="0.9" stroke-width="2" stroke-opacity="0.72" data-badge-layer="pad"/>
      <circle id="ITEM_2_PAD_INNER" cx="0" cy="0" r="30.42" fill="var(--accent-2)" fill-opacity="0.12" stroke="none" data-badge-layer="tint"/>
      <circle cx="0" cy="0" r="31.2" fill="none" stroke="var(--accent-2)" stroke-width="3" stroke-dasharray="6 4" display="none" data-suppressed-decoration="redundant-badge-ring"/>
      <g id="ITEM_2_ICON" transform="translate(-30.0, -30.0)" data-icon-size="60" stroke-linecap="round" stroke-linejoin="round" data-badge-treatment="clean">
        <g transform="translate(-4.476000000000002,-2.4479999999999986) scale(0.2535)" vector-effect="non-scaling-stroke" stroke-width="2.43" stroke-linecap="round" stroke-linejoin="round" stroke-opacity="1.0">
          <line x1="24" y1="216" x2="248" y2="216" fill="none" stroke="#f1f5f9" vector-effect="non-scaling-stroke"/>
          <line x1="48" y1="40" x2="48" y2="216" fill="none" stroke="#f1f5f9" vector-effect="non-scaling-stroke"/>
          <line x1="176" y1="216" x2="176" y2="40" fill="none" stroke="#f1f5f9" vector-effect="non-scaling-stroke"/>
          <line x1="224" y1="216" x2="224" y2="88" fill="none" stroke="#f1f5f9" vector-effect="non-scaling-stroke"/>
          <line x1="80" y1="80" x2="96" y2="80" fill="none" stroke="#f1f5f9" vector-effect="non-scaling-stroke"/>
          <line x1="128" y1="80" x2="144" y2="80" fill="none" stroke="#f1f5f9" vector-effect="non-scaling-stroke"/>
          <line x1="80" y1="120" x2="96" y2="120" fill="none" stroke="#f1f5f9" vector-effect="non-scaling-stroke"/>
          <line x1="128" y1="120" x2="144" y2="120" fill="none" stroke="#f1f5f9" vector-effect="non-scaling-stroke"/>
          <polyline points="88 216 88 160 136 160 136 216" fill="none" stroke="#f1f5f9" vector-effect="non-scaling-stroke"/>
          <line x1="40" y1="40" x2="184" y2="40" fill="none" stroke="#f1f5f9" vector-effect="non-scaling-stroke"/>
          <line x1="176" y1="88" x2="232" y2="88" fill="none" stroke="#f1f5f9" vector-effect="non-scaling-stroke"/>
        </g>
      </g>
    </g>
    <g transform="translate(1440.0, 750.0)">
      <circle id="ITEM_3_NODE" r="50" fill="none" stroke="var(--accent-3)" stroke-width="2" stroke-opacity="0.58" data-badge-layer="outline"/>
      <rect id="ITEM_3_TEXT_BG" x="-208.0" y="74.0" width="416.0" height="206.0" rx="22" fill="var(--panel)" fill-opacity="0.94" stroke="var(--primary-text)" stroke-opacity="0.12" stroke-width="1.5"/>
      <text id="ITEM_3_HEAD" data-bg-id="ITEM_3_TEXT_BG" text-anchor="middle" font-weight="bold" font-size="27" fill="var(--accent-3)" x="0.0" y="90.0" fill-opacity="1.0" style="font-size: 31px; font-family: 'Segoe UI Variable Display', 'Aptos Display', 'Inter', 'Segoe UI', Helvetica, Arial, sans-serif; font-weight: 700; font-kerning: normal; font-feature-settings: &quot;kern&quot; 1, &quot;liga&quot; 1; letter-spacing:-0.4px;" data-final-font-size="31">
        <tspan x="0.0" dy="31.02px">Detailed Mapping</tspan>
      </text>
      <rect id="ITEM_3_HEAD_FRAME" x="-190" y="90" width="380" height="45" fill="none"/>
      <text id="ITEM_3_BODY" data-bg-id="ITEM_3_TEXT_BG" text-anchor="middle" font-size="19.5" fill="var(--primary-text)" x="0.0" y="144.0" style="font-size: 23px; font-family: 'Segoe UI Variable Text', 'Aptos', 'Inter', 'Segoe UI', Helvetica, Arial, sans-serif; font-weight: 400; font-kerning: normal; font-feature-settings: &quot;kern&quot; 1, &quot;liga&quot; 1;" data-final-font-size="23">
        <tspan x="0.0" dy="35.66px">Specific sites like the Heide refinery</tspan>
        <tspan x="0.0" dy="26.45px">and Kiel Canal emerge</tspan>
      </text>
      <rect id="ITEM_3_BODY_FRAME" x="-190" y="144" width="380" height="120" fill="none"/>
      <circle id="TIMELINE_SNAKE_ART_MILESTONE_AURA_3" cx="0" cy="0" r="58" fill="url(#svg64a5c083-universal-icon-aura)" opacity="0.82" stroke="var(--accent-3)" stroke-opacity="1.0" display="none" data-suppressed-decoration="redundant-badge-ring"/>
      <circle id="ITEM_3_PAD" cx="0" cy="0" r="39" fill="var(--icon-pad-bg)" stroke="var(--accent-3)" opacity="1" fill-opacity="0.9" stroke-width="2" stroke-opacity="0.72" data-badge-layer="pad"/>
      <circle id="ITEM_3_PAD_INNER" cx="0" cy="0" r="30.42" fill="var(--accent-3)" fill-opacity="0.12" stroke="none" data-badge-layer="tint"/>
      <circle cx="0" cy="0" r="31.2" fill="none" stroke="var(--accent-3)" stroke-width="3" stroke-dasharray="6 4" display="none" data-suppressed-decoration="redundant-badge-ring"/>
      <g id="ITEM_3_ICON" transform="translate(-30.0, -30.0)" data-icon-size="60" stroke-linecap="round" stroke-linejoin="round" data-badge-treatment="clean">
        <g transform="translate(-2.9979661016949137,-2.9979661016949133) scale(0.12889830508474576)" vector-effect="non-scaling-stroke" fill="#f1f5f9" fill-opacity="1.0" stroke="none">
          <path fill="#f1f5f9" d="M333.7 21.92S347.8 45.41 344 57c-3.4 10.38-23.5 9.3-26 19.94c-1.9 8.45 7.2 21.49 12.5 28.16h6.8c7.1-11.21 12.6-21.78 14-34.94c7.9 8.26 10.4 21.29 1.1 34.94h8.4c8-9.54 24.2-30.9 21.2-44.69c-4.3-20.13-48.3-38.49-48.3-38.49M104 51.07c-17.5 0-29.44 4.94-35.49 14.01S63 84.07 63 92.07v12.03h18V92.07c0-8 .54-14.08 2.49-17.01s6.01-5.99 20.51-5.99h64c10 0 23 12.46 23 24.59V215.7h18v-28.6h103.3l1.6-18H209V93.66c0-23.05-19-42.59-41-42.59zM56 121.1v18h32v-18zm280.2 2l-14.3 158h44.2l-14.3-158zM72 155.1c-10 0-19.88 3.4-27.02 9.7C37.83 171.2 33 180.3 33 194.1v296h78v-296c0-13.7-4.8-22.9-12-29.3c-7.12-6.3-17-9.7-27-9.7m307.9 78l1.6 18H408c14.5 0 23.7 3.5 29.6 9.4c5.9 6 9.4 15.5 9.4 30.4v39.9c2.8-1.1 5.8-1.7 9-1.7s6.2.6 9 1.7v-39.9c0-17.9-4.5-32.8-14.6-43c-10.1-10.3-24.9-14.8-42.4-14.8zm-202.9 2v14h46v-14zm23.5 32c-29.7 0-55.8 14.7-71.5 37.3v16.7h142V303c-15.8-21.7-41.4-35.9-70.5-35.9m88.5 32v110h110v-110zm-160 40v14h142v-14zm327 8c-4 0-7 3-7 7s3 7 7 7s7-3 7-7s-3-7-7-7m-327 24v32.6c6.6 9.5 15 17.6 24.7 23.8L131 473.1v17h37.5v-17h-17.4l18.8-37.5c9.5 3.5 19.8 5.5 30.6 5.5s21.1-2 30.6-5.5l18.8 37.5h-17.4v17h64v-17h-26.4l-22.8-45.6c9.2-5.9 17.3-13.5 23.7-22.3v-34.1zm318 6.3v31.7h18v-31.7c-2.8 1.1-5.8 1.7-9 1.7s-6.2-.6-9-1.7m-116.3 49.7l49.6 63h41l-49.6-63zm64 0l49.6 63H479v-8.9l-43.3-54.1zm64 0l20.3 25.4v-25.4zM321 443.7v46.4h36.3z" vector-effect="non-scaling-stroke" stroke="none"/>
        </g>
      </g>
    </g>
    <g transform="translate(480.0, 750.0)">
      <circle id="ITEM_4_NODE" r="50" fill="none" stroke="var(--accent-1)" stroke-width="2" stroke-opacity="0.58" data-badge-layer="outline"/>
      <rect id="ITEM_4_TEXT_BG" x="-208.0" y="74.0" width="416.0" height="206.0" rx="22" fill="var(--panel)" fill-opacity="0.94" stroke="var(--primary-text)" stroke-opacity="0.12" stroke-width="1.5"/>
      <text id="ITEM_4_HEAD" data-bg-id="ITEM_4_TEXT_BG" text-anchor="middle" font-weight="bold" font-size="27" fill="var(--accent-1)" x="0.0" y="90.0" fill-opacity="1.0" style="font-size: 31px; font-family: 'Segoe UI Variable Display', 'Aptos Display', 'Inter', 'Segoe UI', Helvetica, Arial, sans-serif; font-weight: 700; font-kerning: normal; font-feature-settings: &quot;kern&quot; 1, &quot;liga&quot; 1; letter-spacing:-0.4px;" data-final-font-size="31">
        <tspan x="0.0" dy="31.02px">Final Assessment</tspan>
      </text>
      <rect id="ITEM_4_HEAD_FRAME" x="-190" y="90" width="380" height="45" fill="none"/>
      <text id="ITEM_4_BODY" data-bg-id="ITEM_4_TEXT_BG" text-anchor="middle" font-size="19.5" fill="var(--primary-text)" x="0.0" y="144.0" style="font-size: 23px; font-family: 'Segoe UI Variable Text', 'Aptos', 'Inter', 'Segoe UI', Helvetica, Arial, sans-serif; font-weight: 400; font-kerning: normal; font-feature-settings: &quot;kern&quot; 1, &quot;liga&quot; 1;" data-final-font-size="23">
        <tspan x="0.0" dy="30.37px">Minister identifies resolved,</tspan>
        <tspan x="0.0" dy="26.45px">unverified, and probable</tspan>
        <tspan x="0.0" dy="26.45px">illegal flights</tspan>
      </text>
      <rect id="ITEM_4_BODY_FRAME" x="-190" y="144" width="380" height="120" fill="none"/>
      <circle id="TIMELINE_SNAKE_ART_MILESTONE_AURA_4" cx="0" cy="0" r="58" fill="url(#svg64a5c083-universal-icon-aura)" opacity="0.82" stroke="var(--accent-1)" stroke-opacity="1.0" display="none" data-suppressed-decoration="redundant-badge-ring"/>
      <circle id="ITEM_4_PAD" cx="0" cy="0" r="39" fill="var(--icon-pad-bg)" stroke="var(--accent-1)" opacity="1" fill-opacity="0.9" stroke-width="2" stroke-opacity="0.72" data-badge-layer="pad"/>
      <circle id="ITEM_4_PAD_INNER" cx="0" cy="0" r="30.42" fill="var(--accent-1)" fill-opacity="0.12" stroke="none" data-badge-layer="tint"/>
      <circle cx="0" cy="0" r="31.2" fill="none" stroke="var(--accent-4)" stroke-width="3" stroke-dasharray="6 4" display="none" data-suppressed-decoration="redundant-badge-ring"/>
      <g id="ITEM_4_ICON" transform="translate(-30.0, -30.0)" data-icon-size="60" stroke-linecap="round" stroke-linejoin="round" data-badge-treatment="clean">
        <g transform="translate(-4.765714285714288,-5.85214285714286) scale(2.172857142857143)">
          <path d="M22.5247 17.94C26.6502 17.94 29.9947 14.5956 29.9947 10.47C29.9947 6.34443 26.6502 3 22.5247 3C18.3991 3 15.0547 6.34443 15.0547 10.47C15.0547 14.5956 18.3991 17.94 22.5247 17.94Z" fill="#533566"/>
          <path d="M2.64445 29.2101C1.81445 28.3301 1.78446 26.9601 2.56446 26.0401L15.1045 11.3401L21.2145 17.8201L5.80445 29.4801C4.84445 30.2101 3.47445 30.0901 2.64445 29.2101Z" fill="#9B9B9B"/>
          <path d="M18.9958 4.00515L28.9358 14.5552C29.5958 15.2552 29.5658 16.3552 28.8658 17.0051C28.1658 17.6651 27.0758 17.6352 26.4158 16.9352L16.4758 6.38515C15.8158 5.68515 15.8458 4.59517 16.5458 3.93517C17.2458 3.27517 18.3358 3.30515 18.9958 4.00515ZM15.4146 18.5302C15.4146 19.342 14.7565 20.0002 13.9446 20.0002C13.1328 20.0002 12.4746 19.342 12.4746 18.5302C12.4746 17.7183 13.1328 17.0602 13.9446 17.0602C14.7565 17.0602 15.4146 17.7183 15.4146 18.5302Z" fill="#BEBEBE"/>
        </g>
      </g>
    </g>
    <line id="PHX_SEQUENCE_MIDROUTE_ARROW_1" x1="988.0" y1="750.0" x2="932.0" y2="750.0" stroke="var(--muted-text)" opacity="0.92" stroke-width="5" stroke-linecap="round" marker-end="url(#svg64a5c083-PHX_SEQUENCE_DIRECTION_ARROW)" data-direction-cue="forward"/>
    <line id="PHX_SEQUENCE_MIDROUTE_ARROW_2" x1="932.0" y1="360.0" x2="988.0" y2="360.0" stroke="var(--muted-text)" opacity="0.92" stroke-width="5" stroke-linecap="round" marker-end="url(#svg64a5c083-PHX_SEQUENCE_DIRECTION_ARROW)" data-direction-cue="forward"/>
  </g>
  <text id="SOURCE_NOTE" x="134.0" y="1058.0" fill="var(--muted-text)" opacity="0.88" style="font-family: var(--font-family); font-size: 20px;">Source: Introduction</text>
  <text id="EDITORIAL_NOTE" x="1786.0" y="1058.0" fill="var(--semantic-uncertain)" opacity="0.92" style="font-family: var(--font-family); font-size: 20px;" text-anchor="end">Interpretations remain disputed; wording reflects source uncertainty.</text>
</svg>
